<?xml version="1.0" standalone="no"?>
<!DOCTYPE svg PUBLIC "-//W3C//DTD SVG 20010904//EN"
 "http://www.w3.org/TR/2001/REC-SVG-20010904/DTD/svg10.dtd">
<svg version="1.0" xmlns="http://www.w3.org/2000/svg"
 width="512.000000pt" height="512.000000pt" viewBox="0 0 512.000000 512.000000"
 preserveAspectRatio="xMidYMid meet">
<metadata>
Created by potrace 1.11, written by Peter Selinger 2001-2013
</metadata>
<g transform="translate(0.000000,512.000000) scale(0.100000,-0.100000)"
fill="#000000" stroke="none">
<path d="M3290 4453 c-133 -21 -245 -58 -347 -113 -133 -71 -173 -108 -467
-415 -97 -102 -130 -166 -129 -251 1 -194 189 -320 358 -240 37 17 84 59 185
167 74 79 153 161 175 182 267 255 691 151 830 -204 71 -181 47 -395 -62 -555
-26 -39 -135 -159 -344 -378 -47 -50 -113 -120 -145 -155 -115 -125 -243 -185
-394 -184 -113 1 -190 26 -285 92 -58 41 -53 36 -128 123 -71 82 -125 111
-211 112 -151 1 -270 -136 -252 -290 8 -67 30 -112 93 -190 137 -169 306 -283
508 -342 103 -30 127 -34 265 -37 142 -4 237 13 375 66 162 63 271 144 442
326 61 65 128 137 149 159 177 189 256 274 280 304 16 19 31 37 35 40 21 17
112 180 142 255 63 158 82 264 81 450 -1 309 -109 571 -324 785 -157 157 -330
247 -549 285 -77 14 -221 18 -281 8z"/>
<path d="M2030 3353 c-116 -18 -310 -86 -380 -133 -14 -9 -45 -30 -70 -46 -45
-29 -193 -173 -325 -314 -38 -42 -126 -136 -195 -209 -150 -160 -212 -240
-267 -346 -91 -178 -127 -326 -127 -530 0 -77 2 -156 6 -175 46 -259 147 -459
319 -632 74 -74 205 -169 279 -200 19 -9 51 -23 71 -32 134 -59 384 -81 544
-46 235 50 381 135 573 332 222 230 253 264 277 316 86 177 -42 388 -231 383
-88 -2 -134 -32 -275 -182 -226 -241 -275 -280 -393 -314 -236 -69 -470 39
-598 275 -68 126 -82 312 -34 454 15 43 38 98 52 123 22 36 182 216 319 359
17 17 79 83 139 148 60 64 136 134 169 156 145 97 332 111 488 36 71 -35 124
-78 196 -162 67 -77 117 -108 191 -119 154 -22 296 128 277 292 -8 68 -30 113
-91 189 -141 173 -334 298 -552 356 -73 19 -290 32 -362 21z"/>
</g>
</svg>
